<mxfile host="app.diagrams.net" modified="2023-10-10T19:16:14.974Z" agent="Mozilla/5.0 (Macintosh; Intel Mac OS X 10_15_7) AppleWebKit/605.1.15 (KHTML, like Gecko) Version/17.0 Safari/605.1.15" etag="ocfoy_drVrXWLt8r4YkX" version="22.0.4" type="github">
  <diagram id="C5RBs43oDa-KdzZeNtuy" name="Page-1">
    <mxGraphModel dx="510" dy="664" grid="1" gridSize="10" guides="1" tooltips="1" connect="1" arrows="1" fold="1" page="1" pageScale="1" pageWidth="827" pageHeight="1169" math="0" shadow="0">
      <root>
        <mxCell id="WIyWlLk6GJQsqaUBKTNV-0" />
        <mxCell id="WIyWlLk6GJQsqaUBKTNV-1" parent="WIyWlLk6GJQsqaUBKTNV-0" />
        <mxCell id="SKKVtI3DhHCOVQB-XaRa-13" style="edgeStyle=orthogonalEdgeStyle;rounded=0;orthogonalLoop=1;jettySize=auto;html=1;exitX=0.25;exitY=1;exitDx=0;exitDy=0;entryX=0.25;entryY=0;entryDx=0;entryDy=0;" parent="WIyWlLk6GJQsqaUBKTNV-1" source="SKKVtI3DhHCOVQB-XaRa-9" target="SKKVtI3DhHCOVQB-XaRa-11" edge="1">
          <mxGeometry relative="1" as="geometry" />
        </mxCell>
        <mxCell id="SKKVtI3DhHCOVQB-XaRa-15" value="Registered &lt;br&gt;DID" style="edgeLabel;html=1;align=center;verticalAlign=middle;resizable=0;points=[];" parent="SKKVtI3DhHCOVQB-XaRa-13" vertex="1" connectable="0">
          <mxGeometry x="-0.0333" y="1" relative="1" as="geometry">
            <mxPoint as="offset" />
          </mxGeometry>
        </mxCell>
        <mxCell id="SKKVtI3DhHCOVQB-XaRa-9" value="BCovrin" style="rounded=1;whiteSpace=wrap;html=1;" parent="WIyWlLk6GJQsqaUBKTNV-1" vertex="1">
          <mxGeometry x="80" y="160" width="120" height="40" as="geometry" />
        </mxCell>
        <mxCell id="SKKVtI3DhHCOVQB-XaRa-12" style="edgeStyle=orthogonalEdgeStyle;rounded=0;orthogonalLoop=1;jettySize=auto;html=1;exitX=0.75;exitY=0;exitDx=0;exitDy=0;entryX=0.75;entryY=1;entryDx=0;entryDy=0;" parent="WIyWlLk6GJQsqaUBKTNV-1" source="SKKVtI3DhHCOVQB-XaRa-11" target="SKKVtI3DhHCOVQB-XaRa-9" edge="1">
          <mxGeometry relative="1" as="geometry" />
        </mxCell>
        <mxCell id="SKKVtI3DhHCOVQB-XaRa-14" value="Wallet &lt;br&gt;Seed" style="edgeLabel;html=1;align=center;verticalAlign=middle;resizable=0;points=[];" parent="SKKVtI3DhHCOVQB-XaRa-12" vertex="1" connectable="0">
          <mxGeometry x="0.0167" y="-1" relative="1" as="geometry">
            <mxPoint as="offset" />
          </mxGeometry>
        </mxCell>
        <mxCell id="SKKVtI3DhHCOVQB-XaRa-17" value="" style="edgeStyle=orthogonalEdgeStyle;rounded=0;orthogonalLoop=1;jettySize=auto;html=1;" parent="WIyWlLk6GJQsqaUBKTNV-1" source="SKKVtI3DhHCOVQB-XaRa-11" target="SKKVtI3DhHCOVQB-XaRa-16" edge="1">
          <mxGeometry relative="1" as="geometry" />
        </mxCell>
        <mxCell id="SKKVtI3DhHCOVQB-XaRa-19" value="Register Schema&lt;br&gt;&amp;amp; Cred" style="edgeLabel;html=1;align=center;verticalAlign=middle;resizable=0;points=[];" parent="SKKVtI3DhHCOVQB-XaRa-17" vertex="1" connectable="0">
          <mxGeometry x="-0.25" y="-1" relative="1" as="geometry">
            <mxPoint x="15" y="-1" as="offset" />
          </mxGeometry>
        </mxCell>
        <mxCell id="SKKVtI3DhHCOVQB-XaRa-11" value="CLI" style="rounded=1;whiteSpace=wrap;html=1;" parent="WIyWlLk6GJQsqaUBKTNV-1" vertex="1">
          <mxGeometry x="80" y="280" width="120" height="40" as="geometry" />
        </mxCell>
        <mxCell id="SKKVtI3DhHCOVQB-XaRa-27" style="edgeStyle=orthogonalEdgeStyle;rounded=0;orthogonalLoop=1;jettySize=auto;html=1;entryX=0.25;entryY=1;entryDx=0;entryDy=0;" parent="WIyWlLk6GJQsqaUBKTNV-1" source="SKKVtI3DhHCOVQB-XaRa-16" target="SKKVtI3DhHCOVQB-XaRa-33" edge="1">
          <mxGeometry relative="1" as="geometry">
            <mxPoint x="380" y="200" as="targetPoint" />
          </mxGeometry>
        </mxCell>
        <mxCell id="SKKVtI3DhHCOVQB-XaRa-34" value="Offer Credit" style="edgeLabel;html=1;align=center;verticalAlign=middle;resizable=0;points=[];" parent="SKKVtI3DhHCOVQB-XaRa-27" vertex="1" connectable="0">
          <mxGeometry x="-0.0635" y="-2" relative="1" as="geometry">
            <mxPoint x="-2" as="offset" />
          </mxGeometry>
        </mxCell>
        <mxCell id="SKKVtI3DhHCOVQB-XaRa-16" value="Issuer" style="rounded=1;whiteSpace=wrap;html=1;" parent="WIyWlLk6GJQsqaUBKTNV-1" vertex="1">
          <mxGeometry x="320" y="280" width="120" height="40" as="geometry" />
        </mxCell>
        <mxCell id="SKKVtI3DhHCOVQB-XaRa-28" style="edgeStyle=orthogonalEdgeStyle;rounded=0;orthogonalLoop=1;jettySize=auto;html=1;entryX=0.5;entryY=0;entryDx=0;entryDy=0;exitX=0.75;exitY=1;exitDx=0;exitDy=0;" parent="WIyWlLk6GJQsqaUBKTNV-1" source="SKKVtI3DhHCOVQB-XaRa-33" target="SKKVtI3DhHCOVQB-XaRa-26" edge="1">
          <mxGeometry relative="1" as="geometry">
            <mxPoint x="580" y="200" as="sourcePoint" />
          </mxGeometry>
        </mxCell>
        <mxCell id="SKKVtI3DhHCOVQB-XaRa-29" value="Request Proof" style="edgeLabel;html=1;align=center;verticalAlign=middle;resizable=0;points=[];" parent="SKKVtI3DhHCOVQB-XaRa-28" vertex="1" connectable="0">
          <mxGeometry x="-0.0853" y="3" relative="1" as="geometry">
            <mxPoint x="-3" as="offset" />
          </mxGeometry>
        </mxCell>
        <mxCell id="SKKVtI3DhHCOVQB-XaRa-26" value="Verifier" style="rounded=1;whiteSpace=wrap;html=1;" parent="WIyWlLk6GJQsqaUBKTNV-1" vertex="1">
          <mxGeometry x="520" y="280" width="120" height="40" as="geometry" />
        </mxCell>
        <mxCell id="SKKVtI3DhHCOVQB-XaRa-33" value="Holders" style="swimlane;whiteSpace=wrap;html=1;" parent="WIyWlLk6GJQsqaUBKTNV-1" vertex="1">
          <mxGeometry x="280" y="110" width="400" height="120" as="geometry" />
        </mxCell>
        <mxCell id="SKKVtI3DhHCOVQB-XaRa-22" value="Askar Holder" style="rounded=1;whiteSpace=wrap;html=1;" parent="SKKVtI3DhHCOVQB-XaRa-33" vertex="1">
          <mxGeometry x="240" y="50" width="120" height="40" as="geometry" />
        </mxCell>
        <mxCell id="SKKVtI3DhHCOVQB-XaRa-3" value="Indy-Sdk Holder" style="rounded=1;whiteSpace=wrap;html=1;" parent="SKKVtI3DhHCOVQB-XaRa-33" vertex="1">
          <mxGeometry x="40" y="50" width="120" height="40" as="geometry" />
        </mxCell>
        <mxCell id="SKKVtI3DhHCOVQB-XaRa-23" style="edgeStyle=orthogonalEdgeStyle;rounded=0;orthogonalLoop=1;jettySize=auto;html=1;entryX=0;entryY=0.5;entryDx=0;entryDy=0;" parent="SKKVtI3DhHCOVQB-XaRa-33" source="SKKVtI3DhHCOVQB-XaRa-3" target="SKKVtI3DhHCOVQB-XaRa-22" edge="1">
          <mxGeometry relative="1" as="geometry" />
        </mxCell>
        <mxCell id="SKKVtI3DhHCOVQB-XaRa-24" value="Migrate" style="edgeLabel;html=1;align=center;verticalAlign=middle;resizable=0;points=[];" parent="SKKVtI3DhHCOVQB-XaRa-23" vertex="1" connectable="0">
          <mxGeometry x="-0.1444" y="2" relative="1" as="geometry">
            <mxPoint x="8" y="2" as="offset" />
          </mxGeometry>
        </mxCell>
      </root>
    </mxGraphModel>
  </diagram>
</mxfile>
